<?xml version="1.0" encoding="UTF-8"?>
<svg xmlns="http://www.w3.org/2000/svg"
     xmlns:xlink="http://www.w3.org/1999/xlink"
     xmlns:gadfly="http://www.gadflyjl.org/ns"
     version="1.2"
     width="140mm" height="100mm" viewBox="0 0 140 100"
     stroke="none"
     fill="#000000"
     stroke-width="0.3"
     font-size="3.88"
>
<defs>
  <marker id="arrow" markerWidth="15" markerHeight="7" refX="5" refY="3.5" orient="auto" markerUnits="strokeWidth">
    <path d="M0,0 L15,3.5 L0,7 z" stroke="context-stroke" fill="context-stroke"/>
  </marker>
</defs>
<g stroke="#000000" stroke-opacity="0.000" fill="#222831" id="img-a80e9c23-1">
  <g transform="translate(70,50)">
    <path d="M-70,-50 L70,-50 70,50 -70,50  z" class="primitive"/>
  </g>
</g>
<g class="plotroot xscalable yscalable" id="img-a80e9c23-2">
  <g font-size="3.88" font-family="'PT Sans','Helvetica Neue','Helvetica',sans-serif" fill="#A1A1A1" stroke="#000000" stroke-opacity="0.000" id="img-a80e9c23-3">
    <g transform="translate(65.3,88.38)">
      <g class="primitive">
        <text text-anchor="middle" dy="0.6em">Temperature (C)</text>
      </g>
    </g>
  </g>
  <g class="guide xlabels" font-size="2.82" font-family="'PT Sans Caption','Helvetica Neue','Helvetica',sans-serif" fill="#A1A1A1" id="img-a80e9c23-4">
    <g transform="translate(24.01,82.33)">
      <g class="primitive">
        <text text-anchor="middle" dy="0.6em">0</text>
      </g>
    </g>
    <g transform="translate(40.53,82.33)">
      <g class="primitive">
        <text text-anchor="middle" dy="0.6em">10</text>
      </g>
    </g>
    <g transform="translate(57.04,82.33)">
      <g class="primitive">
        <text text-anchor="middle" dy="0.6em">20</text>
      </g>
    </g>
    <g transform="translate(73.55,82.33)">
      <g class="primitive">
        <text text-anchor="middle" dy="0.6em">30</text>
      </g>
    </g>
    <g transform="translate(90.07,82.33)">
      <g class="primitive">
        <text text-anchor="middle" dy="0.6em">40</text>
      </g>
    </g>
    <g transform="translate(106.58,82.33)">
      <g class="primitive">
        <text text-anchor="middle" dy="0.6em">50</text>
      </g>
    </g>
  </g>
  <g class="guide colorkey" id="img-a80e9c23-5">
    <g fill="#A1A1A1" font-size="2.82" font-family="'PT Sans','Helvetica Neue','Helvetica',sans-serif" id="img-a80e9c23-6">
      <g transform="translate(112.39,43.17)" id="img-a80e9c23-7" class="color_Density_(g/ml)">
        <g class="primitive">
          <text dy="0.35em">Density (g/ml)</text>
        </g>
      </g>
      <g transform="translate(112.39,46.8)" id="img-a80e9c23-8" class="color_Density_fitted_(g/ml)">
        <g class="primitive">
          <text dy="0.35em">Density fitted (g/ml)</text>
        </g>
      </g>
    </g>
    <g fill-opacity="1" id="img-a80e9c23-9">
      <g transform="translate(110.49,43.17)" id="img-a80e9c23-10" class="color_Density_(g/ml)" stroke="#B58486" fill="#FE4365">
        <path d="M-0.91,-0.91 L0.91,-0.91 0.91,0.91 -0.91,0.91  z" class="primitive"/>
      </g>
      <g transform="translate(110.49,46.8)" id="img-a80e9c23-11" class="color_Density_fitted_(g/ml)" stroke="#AA8B71" fill="#ECA25C">
        <path d="M-0.91,-0.91 L0.91,-0.91 0.91,0.91 -0.91,0.91  z" class="primitive"/>
      </g>
    </g>
    <g fill="#A1A1A1" font-size="3.88" font-family="'PT Sans','Helvetica Neue','Helvetica',sans-serif" stroke="#000000" stroke-opacity="0.000" id="img-a80e9c23-12">
      <g transform="translate(109.58,39.32)" id="img-a80e9c23-13">
        <g class="primitive">
          <text dy="-0em">Series type</text>
        </g>
      </g>
    </g>
  </g>
  <g clip-path="url(#img-a80e9c23-14)">
    <g id="img-a80e9c23-15">
      <g pointer-events="visible" stroke-width="0.3" fill="#222831" stroke="#000000" stroke-opacity="0.000" class="guide background" id="img-a80e9c23-16">
        <g transform="translate(65.3,43.17)" id="img-a80e9c23-17">
          <path d="M-43.28,-38.17 L43.28,-38.17 43.28,38.17 -43.28,38.17  z" class="primitive"/>
        </g>
      </g>
      <g class="guide ygridlines xfixed" stroke-dasharray="0.5,0.5" stroke-width="0.2" stroke="#575757" id="img-a80e9c23-18">
        <g transform="translate(65.3,79.33)" id="img-a80e9c23-19">
          <path fill="none" d="M-43.28,0 L43.28,0 " class="primitive"/>
        </g>
        <g transform="translate(65.3,55.22)" id="img-a80e9c23-20">
          <path fill="none" d="M-43.28,0 L43.28,0 " class="primitive"/>
        </g>
        <g transform="translate(65.3,31.11)" id="img-a80e9c23-21">
          <path fill="none" d="M-43.28,0 L43.28,0 " class="primitive"/>
        </g>
        <g transform="translate(65.3,7)" id="img-a80e9c23-22">
          <path fill="none" d="M-43.28,0 L43.28,0 " class="primitive"/>
        </g>
      </g>
      <g class="guide xgridlines yfixed" stroke-dasharray="0.5,0.5" stroke-width="0.2" stroke="#575757" id="img-a80e9c23-23">
        <g transform="translate(24.01,43.17)" id="img-a80e9c23-24">
          <path fill="none" d="M0,-38.17 L0,38.17 " class="primitive"/>
        </g>
        <g transform="translate(40.53,43.17)" id="img-a80e9c23-25">
          <path fill="none" d="M0,-38.17 L0,38.17 " class="primitive"/>
        </g>
        <g transform="translate(57.04,43.17)" id="img-a80e9c23-26">
          <path fill="none" d="M0,-38.17 L0,38.17 " class="primitive"/>
        </g>
        <g transform="translate(73.55,43.17)" id="img-a80e9c23-27">
          <path fill="none" d="M0,-38.17 L0,38.17 " class="primitive"/>
        </g>
        <g transform="translate(90.07,43.17)" id="img-a80e9c23-28">
          <path fill="none" d="M0,-38.17 L0,38.17 " class="primitive"/>
        </g>
        <g transform="translate(106.58,43.17)" id="img-a80e9c23-29">
          <path fill="none" d="M0,-38.17 L0,38.17 " class="primitive"/>
        </g>
      </g>
      <g class="plotpanel" id="img-a80e9c23-30">
        <metadata>
          <boundingbox value="22.013625759548617mm 5.0mm 86.56518147786458mm 76.33419596354167mm"/>
          <unitbox value="-1.2111642972263026 1.0004147415976687 52.42232859445261 -0.01582948319533741"/>
        </metadata>
        <g stroke-width="0.3" fill="#000000" fill-opacity="0.000" class="geometry" id="img-a80e9c23-31">
          <g transform="translate(65.2,26.09)" id="img-a80e9c23-32" class="color_Density_(g/ml)" stroke-opacity="1" stroke-dasharray="none" stroke="#FE4365">
            <path fill="none" d="M-41.17,-18.32 L-40.87,-18.41 -40.56,-18.46 -40.26,-18.51 -39.96,-18.56 -39.66,-18.61 -39.35,-18.65 -39.05,-18.7 -38.75,-18.7 -38.44,-18.75 -38.14,-18.8 -37.84,-18.8 -37.54,-18.85 -37.23,-18.85 -36.93,-18.9 -36.63,-18.9 -36.33,-18.94 -36.02,-18.94 -35.72,-18.94 -35.42,-18.94 -35.11,-18.94 -34.81,-18.94 -34.51,-18.94 -34.21,-18.94 -33.9,-18.94 -33.6,-18.94 -33.3,-18.94 -33,-18.94 -32.69,-18.9 -32.39,-18.9 -32.09,-18.9 -31.78,-18.85 -31.48,-18.85 -31.18,-18.8 -30.88,-18.75 -30.57,-18.75 -30.27,-18.7 -29.97,-18.65 -29.67,-18.65 -29.36,-18.61 -29.06,-18.56 -28.76,-18.51 -28.45,-18.46 -28.15,-18.41 -27.85,-18.37 -27.55,-18.27 -27.24,-18.22 -26.94,-18.17 -26.64,-18.12 -26.34,-18.03 -26.03,-17.98 -25.73,-17.93 -25.43,-17.84 -25.13,-17.79 -24.82,-17.69 -24.52,-17.59 -24.22,-17.55 -23.91,-17.45 -23.61,-17.35 -23.31,-17.3 -23.01,-17.21 -22.7,-17.11 -22.4,-17.02 -22.1,-16.92 -21.8,-16.82 -21.49,-16.73 -21.19,-16.63 -20.89,-16.53 -20.58,-16.39 -20.28,-16.29 -19.98,-16.2 -19.68,-16.1 -19.37,-15.95 -19.07,-15.86 -18.77,-15.76 -18.46,-15.62 -18.16,-15.52 -17.86,-15.38 -17.56,-15.23 -17.25,-15.13 -16.95,-14.99 -16.65,-14.85 -16.35,-14.75 -16.04,-14.6 -15.74,-14.46 -15.44,-14.31 -15.14,-14.17 -14.83,-14.03 -14.53,-13.88 -14.23,-13.74 -13.93,-13.59 -13.62,-13.45 -13.32,-13.3 -13.02,-13.16 -12.71,-13.01 -12.41,-12.82 -12.11,-12.68 -11.81,-12.53 -11.5,-12.34 -11.2,-12.19 -10.9,-12 -10.59,-11.86 -10.29,-11.66 -9.99,-11.52 -9.69,-11.32 -9.38,-11.18 -9.08,-10.99 -8.78,-10.79 -8.48,-10.65 -8.17,-10.46 -7.87,-10.26 -7.57,-10.07 -7.27,-9.88 -6.96,-9.69 -6.66,-9.54 -6.36,-9.35 -6.05,-9.15 -5.75,-8.96 -5.45,-8.72 -5.15,-8.53 -4.84,-8.34 -4.54,-8.14 -4.24,-7.95 -3.94,-7.76 -3.63,-7.52 -3.33,-7.32 -3.03,-7.13 -2.72,-6.89 -2.42,-6.7 -2.12,-6.45 -1.82,-6.26 -1.51,-6.02 -1.21,-5.83 -0.91,-5.59 -0.61,-5.39 -0.3,-5.15 -0,-4.91 0.3,-4.72 0.61,-4.48 0.91,-4.24 1.21,-4 1.51,-3.75 1.82,-3.56 2.12,-3.32 2.42,-3.08 2.72,-2.84 3.03,-2.6 3.33,-2.36 3.63,-2.11 3.93,-1.87 4.24,-1.58 4.54,-1.34 4.84,-1.1 5.15,-0.86 5.45,-0.62 5.75,-0.33 6.05,-0.09 6.36,0.15 6.66,0.44 6.96,0.68 7.27,0.92 7.57,1.21 7.87,1.45 8.17,1.74 8.48,1.98 8.78,2.27 9.08,2.52 9.38,2.8 9.69,3.09 9.99,3.33 10.29,3.62 10.59,3.91 10.9,4.2 11.2,4.44 11.5,4.73 11.81,5.02 12.11,5.31 12.41,5.6 12.71,5.89 13.02,6.18 13.32,6.47 13.62,6.76 13.93,7.05 14.23,7.34 14.53,7.63 14.83,7.92 15.14,8.21 15.44,8.49 15.74,8.83 16.04,9.12 16.35,9.41 16.65,9.7 16.95,10.04 17.25,10.33 17.56,10.66 17.86,10.95 18.16,11.24 18.46,11.58 18.77,11.87 19.07,12.21 19.37,12.5 19.68,12.83 19.98,13.12 20.28,13.46 20.59,13.8 20.89,14.09 21.19,14.43 21.49,14.76 21.8,15.1 22.1,15.39 22.4,15.73 22.7,16.07 23.01,16.4 23.31,16.74 23.61,17.08 23.91,17.37 24.22,17.71 24.52,18.04 24.82,18.38 25.12,18.72 25.43,19.06 25.73,19.39 26.03,19.78 26.34,20.12 26.64,20.45 26.94,20.79 27.24,21.13 27.55,21.47 27.85,21.85 28.15,22.19 28.46,22.53 28.76,22.91 29.06,23.25 29.36,23.59 29.67,23.97 29.97,24.31 30.27,24.65 30.57,25.04 30.88,25.37 31.18,25.76 31.48,26.1 31.78,26.48 32.09,26.87 32.39,27.21 32.69,27.59 33,27.93 33.3,28.31 33.6,28.7 33.9,29.09 34.21,29.42 34.51,29.81 34.81,30.19 35.11,30.58 35.42,30.97 35.72,31.3 36.02,31.69 36.33,32.08 36.63,32.46 36.93,32.85 37.23,33.23 37.54,33.62 37.84,34 38.14,34.39 38.44,34.78 38.75,35.16 39.05,35.55 39.35,35.93 39.66,36.37 39.96,36.75 40.26,37.14 40.56,37.52 40.87,37.91 41.17,38.34 " class="primitive"/>
          </g>
          <g transform="translate(65.2,26.09)" id="img-a80e9c23-33" class="color_Density_fitted_(g/ml)" stroke-opacity="1" stroke-dasharray="none" stroke="#ECA25C">
            <path fill="none" d="M-41.17,-18.36 L-40.87,-18.42 -40.56,-18.47 -40.26,-18.52 -39.96,-18.57 -39.66,-18.61 -39.35,-18.65 -39.05,-18.69 -38.75,-18.73 -38.44,-18.76 -38.14,-18.79 -37.84,-18.82 -37.54,-18.84 -37.23,-18.87 -36.93,-18.89 -36.63,-18.9 -36.33,-18.92 -36.02,-18.93 -35.72,-18.94 -35.42,-18.95 -35.11,-18.95 -34.81,-18.96 -34.51,-18.96 -34.21,-18.95 -33.9,-18.95 -33.6,-18.94 -33.3,-18.93 -33,-18.92 -32.69,-18.9 -32.39,-18.89 -32.09,-18.87 -31.78,-18.84 -31.48,-18.82 -31.18,-18.79 -30.88,-18.76 -30.57,-18.73 -30.27,-18.7 -29.97,-18.66 -29.67,-18.62 -29.36,-18.58 -29.06,-18.54 -28.76,-18.49 -28.45,-18.44 -28.15,-18.39 -27.85,-18.34 -27.55,-18.28 -27.24,-18.23 -26.94,-18.17 -26.64,-18.11 -26.34,-18.04 -26.03,-17.98 -25.73,-17.91 -25.43,-17.84 -25.13,-17.76 -24.82,-17.69 -24.52,-17.61 -24.22,-17.53 -23.91,-17.45 -23.61,-17.37 -23.31,-17.28 -23.01,-17.19 -22.7,-17.1 -22.4,-17.01 -22.1,-16.92 -21.8,-16.82 -21.49,-16.72 -21.19,-16.62 -20.89,-16.52 -20.58,-16.41 -20.28,-16.31 -19.98,-16.2 -19.68,-16.09 -19.37,-15.98 -19.07,-15.86 -18.77,-15.74 -18.46,-15.62 -18.16,-15.5 -17.86,-15.38 -17.56,-15.26 -17.25,-15.13 -16.95,-15 -16.65,-14.87 -16.35,-14.74 -16.04,-14.6 -15.74,-14.47 -15.44,-14.33 -15.14,-14.19 -14.83,-14.05 -14.53,-13.9 -14.23,-13.76 -13.93,-13.61 -13.62,-13.46 -13.32,-13.31 -13.02,-13.16 -12.71,-13 -12.41,-12.84 -12.11,-12.68 -11.81,-12.52 -11.5,-12.36 -11.2,-12.2 -10.9,-12.03 -10.59,-11.86 -10.29,-11.69 -9.99,-11.52 -9.69,-11.35 -9.38,-11.18 -9.08,-11 -8.78,-10.82 -8.48,-10.64 -8.17,-10.46 -7.87,-10.28 -7.57,-10.09 -7.27,-9.9 -6.96,-9.71 -6.66,-9.52 -6.36,-9.33 -6.05,-9.14 -5.75,-8.94 -5.45,-8.75 -5.15,-8.55 -4.84,-8.35 -4.54,-8.15 -4.24,-7.94 -3.94,-7.74 -3.63,-7.53 -3.33,-7.32 -3.03,-7.11 -2.72,-6.9 -2.42,-6.69 -2.12,-6.47 -1.82,-6.26 -1.51,-6.04 -1.21,-5.82 -0.91,-5.6 -0.61,-5.37 -0.3,-5.15 -0,-4.92 0.3,-4.7 0.61,-4.47 0.91,-4.24 1.21,-4.01 1.51,-3.77 1.82,-3.54 2.12,-3.3 2.42,-3.06 2.72,-2.82 3.03,-2.58 3.33,-2.34 3.63,-2.1 3.93,-1.85 4.24,-1.6 4.54,-1.35 4.84,-1.11 5.15,-0.85 5.45,-0.6 5.75,-0.35 6.05,-0.09 6.36,0.17 6.66,0.42 6.96,0.68 7.27,0.95 7.57,1.21 7.87,1.47 8.17,1.74 8.48,2.01 8.78,2.27 9.08,2.54 9.38,2.81 9.69,3.09 9.99,3.36 10.29,3.64 10.59,3.91 10.9,4.19 11.2,4.47 11.5,4.75 11.81,5.03 12.11,5.32 12.41,5.6 12.71,5.89 13.02,6.18 13.32,6.46 13.62,6.75 13.93,7.05 14.23,7.34 14.53,7.63 14.83,7.93 15.14,8.22 15.44,8.52 15.74,8.82 16.04,9.12 16.35,9.42 16.65,9.73 16.95,10.03 17.25,10.34 17.56,10.64 17.86,10.95 18.16,11.26 18.46,11.57 18.77,11.89 19.07,12.2 19.37,12.51 19.68,12.83 19.98,13.15 20.28,13.47 20.59,13.79 20.89,14.11 21.19,14.43 21.49,14.75 21.8,15.08 22.1,15.4 22.4,15.73 22.7,16.06 23.01,16.39 23.31,16.72 23.61,17.05 23.91,17.38 24.22,17.72 24.52,18.05 24.82,18.39 25.12,18.73 25.43,19.07 25.73,19.41 26.03,19.75 26.34,20.1 26.64,20.44 26.94,20.78 27.24,21.13 27.55,21.48 27.85,21.83 28.15,22.18 28.46,22.53 28.76,22.88 29.06,23.23 29.36,23.59 29.67,23.95 29.97,24.3 30.27,24.66 30.57,25.02 30.88,25.38 31.18,25.75 31.48,26.11 31.78,26.47 32.09,26.84 32.39,27.2 32.69,27.57 33,27.94 33.3,28.31 33.6,28.68 33.9,29.06 34.21,29.43 34.51,29.8 34.81,30.18 35.11,30.56 35.42,30.94 35.72,31.31 36.02,31.7 36.33,32.08 36.63,32.46 36.93,32.85 37.23,33.23 37.54,33.62 37.84,34.01 38.14,34.39 38.44,34.78 38.75,35.18 39.05,35.57 39.35,35.96 39.66,36.36 39.96,36.75 40.26,37.15 40.56,37.55 40.87,37.95 41.17,38.35 " class="primitive"/>
          </g>
        </g>
      </g>
    </g>
  </g>
  <g class="guide ylabels" font-size="2.82" font-family="'PT Sans Caption','Helvetica Neue','Helvetica',sans-serif" fill="#A1A1A1" id="img-a80e9c23-34">
    <g transform="translate(21.01,79.33)" id="img-a80e9c23-35">
      <g class="primitive">
        <text text-anchor="end" dy="0.35em">0.985</text>
      </g>
    </g>
    <g transform="translate(21.01,55.22)" id="img-a80e9c23-36">
      <g class="primitive">
        <text text-anchor="end" dy="0.35em">0.990</text>
      </g>
    </g>
    <g transform="translate(21.01,31.11)" id="img-a80e9c23-37">
      <g class="primitive">
        <text text-anchor="end" dy="0.35em">0.995</text>
      </g>
    </g>
    <g transform="translate(21.01,7)" id="img-a80e9c23-38">
      <g class="primitive">
        <text text-anchor="end" dy="0.35em">1.000</text>
      </g>
    </g>
  </g>
  <g font-size="3.88" font-family="'PT Sans','Helvetica Neue','Helvetica',sans-serif" fill="#A1A1A1" stroke="#000000" stroke-opacity="0.000" id="img-a80e9c23-39">
    <g transform="translate(8.79,41.17)" id="img-a80e9c23-40">
      <g class="primitive">
        <text text-anchor="middle" dy="0.35em" transform="rotate(-90,0, 2)">g/ml</text>
      </g>
    </g>
  </g>
</g>
<defs>
  <clipPath id="img-a80e9c23-14">
    <path d="M22.01,5 L108.58,5 108.58,81.33 22.01,81.33 " />
  </clipPath>
</defs>
</svg>
