<?xml version="1.0" encoding="UTF-8"?>
<svg xmlns="http://www.w3.org/2000/svg"
     xmlns:xlink="http://www.w3.org/1999/xlink"
     xmlns:gadfly="http://www.gadflyjl.org/ns"
     version="1.2"
     width="140mm" height="100mm" viewBox="0 0 140 100"
     stroke="none"
     fill="#000000"
     stroke-width="0.3"
     font-size="3.88"
>
<defs>
  <marker id="arrow" markerWidth="15" markerHeight="7" refX="5" refY="3.5" orient="auto" markerUnits="strokeWidth">
    <path d="M0,0 L15,3.5 L0,7 z" stroke="context-stroke" fill="context-stroke"/>
  </marker>
</defs>
<g stroke="#000000" stroke-opacity="0.000" fill="#222831" id="img-4b541bd6-1">
  <g transform="translate(70,50)">
    <path d="M-70,-50 L70,-50 70,50 -70,50  z" class="primitive"/>
  </g>
</g>
<g class="plotroot xscalable yscalable" id="img-4b541bd6-2">
  <g font-size="3.88" font-family="'PT Sans','Helvetica Neue','Helvetica',sans-serif" fill="#A1A1A1" stroke="#000000" stroke-opacity="0.000" id="img-4b541bd6-3">
    <g transform="translate(66.15,88.38)">
      <g class="primitive">
        <text text-anchor="middle" dy="0.6em">Temperature (C)</text>
      </g>
    </g>
  </g>
  <g class="guide xlabels" font-size="2.82" font-family="'PT Sans Caption','Helvetica Neue','Helvetica',sans-serif" fill="#A1A1A1" id="img-4b541bd6-4">
    <g transform="translate(25.73,82.33)">
      <g class="primitive">
        <text text-anchor="middle" dy="0.6em">0</text>
      </g>
    </g>
    <g transform="translate(66.15,82.33)">
      <g class="primitive">
        <text text-anchor="middle" dy="0.6em">5</text>
      </g>
    </g>
    <g transform="translate(106.58,82.33)">
      <g class="primitive">
        <text text-anchor="middle" dy="0.6em">10</text>
      </g>
    </g>
  </g>
  <g class="guide colorkey" id="img-4b541bd6-5">
    <g fill="#A1A1A1" font-size="2.82" font-family="'PT Sans','Helvetica Neue','Helvetica',sans-serif" id="img-4b541bd6-6">
      <g transform="translate(112.39,43.17)" id="img-4b541bd6-7" class="color_Density_(g/ml)">
        <g class="primitive">
          <text dy="0.35em">Density (g/ml)</text>
        </g>
      </g>
      <g transform="translate(112.39,46.8)" id="img-4b541bd6-8" class="color_Density_fitted_(g/ml)">
        <g class="primitive">
          <text dy="0.35em">Density fitted (g/ml)</text>
        </g>
      </g>
    </g>
    <g fill-opacity="1" id="img-4b541bd6-9">
      <g transform="translate(110.49,43.17)" id="img-4b541bd6-10" class="color_Density_(g/ml)" stroke="#B58486" fill="#FE4365">
        <path d="M-0.91,-0.91 L0.91,-0.91 0.91,0.91 -0.91,0.91  z" class="primitive"/>
      </g>
      <g transform="translate(110.49,46.8)" id="img-4b541bd6-11" class="color_Density_fitted_(g/ml)" stroke="#AA8B71" fill="#ECA25C">
        <path d="M-0.91,-0.91 L0.91,-0.91 0.91,0.91 -0.91,0.91  z" class="primitive"/>
      </g>
    </g>
    <g fill="#A1A1A1" font-size="3.88" font-family="'PT Sans','Helvetica Neue','Helvetica',sans-serif" stroke="#000000" stroke-opacity="0.000" id="img-4b541bd6-12">
      <g transform="translate(109.58,39.32)" id="img-4b541bd6-13">
        <g class="primitive">
          <text dy="-0em">Series type</text>
        </g>
      </g>
    </g>
  </g>
  <g clip-path="url(#img-4b541bd6-14)">
    <g id="img-4b541bd6-15">
      <g pointer-events="visible" stroke-width="0.3" fill="#222831" stroke="#000000" stroke-opacity="0.000" class="guide background" id="img-4b541bd6-16">
        <g transform="translate(66.15,43.17)" id="img-4b541bd6-17">
          <path d="M-42.43,-38.17 L42.43,-38.17 42.43,38.17 -42.43,38.17  z" class="primitive"/>
        </g>
      </g>
      <g class="guide ygridlines xfixed" stroke-dasharray="0.5,0.5" stroke-width="0.2" stroke="#575757" id="img-4b541bd6-18">
        <g transform="translate(66.15,79.33)" id="img-4b541bd6-19">
          <path fill="none" d="M-42.43,0 L42.43,0 " class="primitive"/>
        </g>
        <g transform="translate(66.15,55.22)" id="img-4b541bd6-20">
          <path fill="none" d="M-42.43,0 L42.43,0 " class="primitive"/>
        </g>
        <g transform="translate(66.15,31.11)" id="img-4b541bd6-21">
          <path fill="none" d="M-42.43,0 L42.43,0 " class="primitive"/>
        </g>
        <g transform="translate(66.15,7)" id="img-4b541bd6-22">
          <path fill="none" d="M-42.43,0 L42.43,0 " class="primitive"/>
        </g>
      </g>
      <g class="guide xgridlines yfixed" stroke-dasharray="0.5,0.5" stroke-width="0.2" stroke="#575757" id="img-4b541bd6-23">
        <g transform="translate(25.73,43.17)" id="img-4b541bd6-24">
          <path fill="none" d="M0,-38.17 L0,38.17 " class="primitive"/>
        </g>
        <g transform="translate(66.15,43.17)" id="img-4b541bd6-25">
          <path fill="none" d="M0,-38.17 L0,38.17 " class="primitive"/>
        </g>
        <g transform="translate(106.58,43.17)" id="img-4b541bd6-26">
          <path fill="none" d="M0,-38.17 L0,38.17 " class="primitive"/>
        </g>
      </g>
      <g class="plotpanel" id="img-4b541bd6-27">
        <metadata>
          <boundingbox value="23.726871744791666mm 5.0mm 84.85193549262152mm 76.33454047309027mm"/>
          <unitbox value="-0.247365754179443 1.0000082947924473 10.494731508358885 -0.0003165895848947005"/>
        </metadata>
        <g stroke-width="0.3" fill="#000000" fill-opacity="0.000" class="geometry" id="img-4b541bd6-28">
          <g transform="translate(65.83,30.76)" id="img-4b541bd6-29" class="color_Density_(g/ml)" stroke-opacity="1" stroke-dasharray="none" stroke="#FE4365">
            <path fill="none" d="M-40.02,14.82 L-38.54,10 -37.05,7.58 -35.57,5.17 -34.09,2.76 -32.61,0.35 -31.13,-2.06 -29.64,-4.47 -28.16,-4.47 -26.68,-6.88 -25.2,-9.29 -23.71,-9.29 -22.23,-11.71 -20.75,-11.71 -19.27,-14.12 -17.79,-14.12 -16.3,-16.53 -14.82,-16.53 -13.34,-16.53 -11.86,-16.53 -10.38,-16.53 -8.89,-16.53 -7.41,-16.53 -5.93,-16.53 -4.45,-16.53 -2.96,-16.53 -1.48,-16.53 -0,-16.53 1.48,-14.12 2.96,-14.12 4.45,-14.12 5.93,-11.71 7.41,-11.71 8.89,-9.29 10.38,-6.88 11.86,-6.88 13.34,-4.47 14.82,-2.06 16.3,-2.06 17.79,0.35 19.27,2.76 20.75,5.17 22.23,7.58 23.71,10 25.2,12.41 26.68,17.23 28.16,19.64 29.64,22.05 31.13,24.46 32.61,29.28 34.09,31.7 35.57,34.11 37.05,38.93 38.54,41.34 40.02,46.16 " class="primitive"/>
          </g>
          <g transform="translate(65.83,30.93)" id="img-4b541bd6-30" class="color_Density_fitted_(g/ml)" stroke-opacity="1" stroke-dasharray="none" stroke="#ECA25C">
            <path fill="none" d="M-40.02,12.42 L-38.54,9.67 -37.05,7.05 -35.57,4.57 -34.09,2.23 -32.61,0.02 -31.13,-2.05 -29.64,-3.99 -28.16,-5.79 -26.68,-7.46 -25.2,-9 -23.71,-10.41 -22.23,-11.68 -20.75,-12.83 -19.27,-13.84 -17.79,-14.73 -16.3,-15.48 -14.82,-16.11 -13.34,-16.61 -11.86,-16.98 -10.38,-17.23 -8.89,-17.35 -7.41,-17.34 -5.93,-17.21 -4.45,-16.95 -2.96,-16.57 -1.48,-16.07 -0,-15.44 1.48,-14.69 2.96,-13.82 4.45,-12.83 5.93,-11.71 7.41,-10.48 8.89,-9.13 10.38,-7.65 11.86,-6.06 13.34,-4.35 14.82,-2.52 16.3,-0.58 17.79,1.48 19.27,3.66 20.75,5.96 22.23,8.36 23.71,10.89 25.2,13.52 26.68,16.28 28.16,19.14 29.64,22.12 31.13,25.21 32.61,28.41 34.09,31.72 35.57,35.14 37.05,38.68 38.54,42.32 40.02,46.07 " class="primitive"/>
          </g>
        </g>
      </g>
    </g>
  </g>
  <g class="guide ylabels" font-size="2.82" font-family="'PT Sans Caption','Helvetica Neue','Helvetica',sans-serif" fill="#A1A1A1" id="img-4b541bd6-31">
    <g transform="translate(22.73,79.33)" id="img-4b541bd6-32">
      <g class="primitive">
        <text text-anchor="end" dy="0.35em">0.9997</text>
      </g>
    </g>
    <g transform="translate(22.73,55.22)" id="img-4b541bd6-33">
      <g class="primitive">
        <text text-anchor="end" dy="0.35em">0.9998</text>
      </g>
    </g>
    <g transform="translate(22.73,31.11)" id="img-4b541bd6-34">
      <g class="primitive">
        <text text-anchor="end" dy="0.35em">0.9999</text>
      </g>
    </g>
    <g transform="translate(22.73,7)" id="img-4b541bd6-35">
      <g class="primitive">
        <text text-anchor="end" dy="0.35em">1.0000</text>
      </g>
    </g>
  </g>
  <g font-size="3.88" font-family="'PT Sans','Helvetica Neue','Helvetica',sans-serif" fill="#A1A1A1" stroke="#000000" stroke-opacity="0.000" id="img-4b541bd6-36">
    <g transform="translate(8.79,41.17)" id="img-4b541bd6-37">
      <g class="primitive">
        <text text-anchor="middle" dy="0.35em" transform="rotate(-90,0, 2)">g/ml</text>
      </g>
    </g>
  </g>
</g>
<defs>
  <clipPath id="img-4b541bd6-14">
    <path d="M23.73,5 L108.58,5 108.58,81.33 23.73,81.33 " />
  </clipPath>
</defs>
</svg>
